<?xml version="1.0" encoding="UTF-8"?><svg id="Layer_2" xmlns="http://www.w3.org/2000/svg" xmlns:xlink="http://www.w3.org/1999/xlink" viewBox="0 0 97.5 97.5"><defs><style>.cls-1{fill:none;}.cls-2{fill:#fff;}.cls-3{fill:#9257a3;}.cls-4{clip-path:url(#clippath);}</style><clipPath id="clippath"><rect class="cls-1" width="97.5" height="97.5"/></clipPath></defs><g id="Layer_1-2"><g class="cls-4"><path class="cls-3" d="M48.75,97.5c26.92,0,48.75-21.83,48.75-48.75S75.67,0,48.75,0,0,21.83,0,48.75s21.83,48.75,48.75,48.75"/><path class="cls-2" d="M77.89,59.03c0,6.2-4.13,9.8-8.94,9.8s-8.89-3.65-8.89-9.85,4.08-9.71,8.89-9.71,8.94,3.65,8.94,9.75M55.59,58.98c0,8.17,5.43,13.7,12.49,13.7,4.81,0,8.22-2.45,9.8-5.38v4.95h4.42v-35.56h-4.42v13.94c-1.83-3.03-5.62-5.14-9.76-5.14-7.11,0-12.54,5.29-12.54,13.5"/><path class="cls-2" d="M52.18,66.86c0-3.36-2.6-5.96-5.77-5.96-3.36,0-5.96,2.6-5.96,5.96s2.59,5.96,5.96,5.96c3.17,0,5.77-2.6,5.77-5.96"/></g></g></svg>